<svg id="Capa_1" data-name="Capa 1" xmlns="http://www.w3.org/2000/svg" viewBox="0 0 761.37 200.53"><defs><style>.cls-1{fill:#fff;}</style></defs><title>lava-vect</title><path class="cls-1" d="M333.11,130.74,313.8,149.85H268.29V78.7l19.27-19.22h24.75v47.14h20.8Zm-20.37,17.58.05-21.27h-20.9V79.91h-22v68.41Z" transform="translate(-2 -9.17)"/><path class="cls-1" d="M442.32,130.58l-19.48,19.27H394.39L391.81,141H378.72l-9.08,8.87h-30l25.82-71.26,19.16-19.11h32Zm-20.9,17.74L396.66,79.91h-30l-24.76,68.41h26.82l2.58-9H393l2.59,9Zm-33-25.28H376l6.17-21.49Z" transform="translate(-2 -9.17)"/><path class="cls-1" d="M533.69,59.48,508.83,131l-19.06,18.9H462.12L437.47,79l19.37-19.48h27.87L490,74.85l15.36-15.37Zm-21,20.43H487.4l-11.35,32.62L464.81,79.91H439.52l23.65,68.41h25.76Z" transform="translate(-2 -9.17)"/><path class="cls-1" d="M628.28,130.58,608.8,149.85H580.35L577.77,141H564.68l-9.08,8.87h-30l25.81-71.26,19.16-19.11h32Zm-20.9,17.74L582.62,79.91h-30l-24.76,68.41h26.82l2.58-9H579l2.59,9Zm-33-25.28H562l6.18-21.49Z" transform="translate(-2 -9.17)"/><path class="cls-1" d="M659.88,135.08a4.67,4.67,0,0,1-.34,1.76,4.23,4.23,0,0,1-1,1.53l-9.22,9.16a7.13,7.13,0,0,1-2.48,1.63,7.9,7.9,0,0,1-2.87.54,7.81,7.81,0,0,1-2.33-.36,7,7,0,0,1-2.15-1.06,5.36,5.36,0,0,1-1.58-1.71,4.4,4.4,0,0,1-.18-4.17,6.09,6.09,0,0,1,1.08-1.6l9.25-9.24a6.19,6.19,0,0,1,2.38-1.48,8.61,8.61,0,0,1,2.74-.46,8.15,8.15,0,0,1,2.36.36,7.08,7.08,0,0,1,2.15,1.06,6.1,6.1,0,0,1,1.57,1.71Zm-10,9.21a3.82,3.82,0,0,0-.54-2,5.4,5.4,0,0,0-1.42-1.44,7.06,7.06,0,0,0-1.92-.91,7.9,7.9,0,0,0-2-.29,7.58,7.58,0,0,0-2,.29,6.54,6.54,0,0,0-1.92.91,4.87,4.87,0,0,0-1.42,1.44,3.66,3.66,0,0,0-.57,2,3.45,3.45,0,0,0,.57,2,4.47,4.47,0,0,0,1.42,1.45,6,6,0,0,0,1.92.88,6.89,6.89,0,0,0,2,.31,7.18,7.18,0,0,0,2-.31,7.33,7.33,0,0,0,1.92-.9,5,5,0,0,0,1.42-1.45Z" transform="translate(-2 -9.17)"/><path class="cls-1" d="M710.41,131.3l-11.57,12.3a19.66,19.66,0,0,1-6.24,4.5,18,18,0,0,1-7.53,1.6,17.83,17.83,0,0,1-9.32-2.53,18.77,18.77,0,0,1-3.78-2.93,17.39,17.39,0,0,1-2.9-3.73,18.35,18.35,0,0,1-1.89-4.42,17.66,17.66,0,0,1-.67-4.89,17.05,17.05,0,0,1,1.63-7.49,22.42,22.42,0,0,1,4.48-6.23q1.61-1.61,3.15-3.29t3.11-3.24c1-1,2.14-2,3.26-2.92a22.4,22.4,0,0,1,3.55-2.41,19,19,0,0,1,4-1.6,17,17,0,0,1,4.61-.6,18.17,18.17,0,0,1,4.87.65,18.74,18.74,0,0,1,4.35,1.83,19,19,0,0,1,3.75,2.9,22.25,22.25,0,0,1,3.06,3.84c-.35.34-.82.83-1.43,1.47l-2,2.1-2.36,2.38c-.83.81-1.62,1.56-2.38,2.25s-1.49,1.31-2.15,1.81a6.48,6.48,0,0,1-1.58,1Zm-21.59,2.28a4.21,4.21,0,0,1-1.58,1.5,4.34,4.34,0,0,1-2.17.57,4.24,4.24,0,0,1-1.74-.36,4.59,4.59,0,0,1-1.45-1,4,4,0,0,1-1-1.43,3.94,3.94,0,0,1-.37-1.7,4.18,4.18,0,0,1,.37-1.76,4.85,4.85,0,0,1,1-1.43,4.7,4.7,0,0,1,1.45-1,4.25,4.25,0,0,1,1.71-.34,4.53,4.53,0,0,1,2.17.54,4.45,4.45,0,0,1,1.58,1.53l11.24-7.12a19.6,19.6,0,0,0-2.85-3.44,18.32,18.32,0,0,0-7.72-4.24,17.35,17.35,0,0,0-4.42-.57,17,17,0,0,0-4.69.64,18.44,18.44,0,0,0-7.87,4.61,17.91,17.91,0,0,0-2.79,3.6,18.77,18.77,0,0,0-1.82,4.24,17.24,17.24,0,0,0-.64,4.72,16.9,16.9,0,0,0,.64,4.68,18.28,18.28,0,0,0,1.82,4.25,17.84,17.84,0,0,0,6.42,6.34,18,18,0,0,0,8.93,2.43,17.35,17.35,0,0,0,4.42-.57,18,18,0,0,0,4.12-1.63,18.44,18.44,0,0,0,3.6-2.59,17.74,17.74,0,0,0,2.85-3.41Z" transform="translate(-2 -9.17)"/><path class="cls-1" d="M763.37,122.39a17.11,17.11,0,0,1-1.29,6.63,17.49,17.49,0,0,1-3.81,5.62l-9.37,9.5a18.44,18.44,0,0,1-22.62,3,18.77,18.77,0,0,1-3.78-2.93,17.39,17.39,0,0,1-2.9-3.73,18.35,18.35,0,0,1-1.89-4.42,18.37,18.37,0,0,1,.88-12.3,20.4,20.4,0,0,1,4.32-6.11l8.91-8.9a17.57,17.57,0,0,1,2.79-2.28,18.65,18.65,0,0,1,3.19-1.68,19,19,0,0,1,3.44-1,18.07,18.07,0,0,1,8.57.34,18.64,18.64,0,0,1,4.45,1.94,20,20,0,0,1,3.73,3,19,19,0,0,1,4.74,8.36Zm-10,8.81a17.62,17.62,0,0,0-.63-4.72,18.3,18.3,0,0,0-1.81-4.24,18.56,18.56,0,0,0-2.77-3.6,17.36,17.36,0,0,0-3.6-2.79,18.15,18.15,0,0,0-4.24-1.82,17.22,17.22,0,0,0-4.71-.64,17,17,0,0,0-4.69.64,18.44,18.44,0,0,0-7.87,4.61,18.28,18.28,0,0,0-2.79,3.6,18.77,18.77,0,0,0-1.82,4.24,17.24,17.24,0,0,0-.64,4.72,16.9,16.9,0,0,0,.64,4.68,18.28,18.28,0,0,0,1.82,4.25A17.53,17.53,0,0,0,723,143.7a17.11,17.11,0,0,0,3.63,2.77,17.54,17.54,0,0,0,13.64,1.78,17.23,17.23,0,0,0,4.24-1.78,18,18,0,0,0,8.18-10.59Zm-13.31,0a4.23,4.23,0,0,1-.34,1.7,4.4,4.4,0,0,1-2.38,2.39,4.29,4.29,0,0,1-1.73.36,4.24,4.24,0,0,1-1.74-.36,4.59,4.59,0,0,1-1.45-1,4,4,0,0,1-.95-1.43,3.94,3.94,0,0,1-.37-1.7,4.18,4.18,0,0,1,.37-1.76,4.85,4.85,0,0,1,1-1.43,4.7,4.7,0,0,1,1.45-1,4.25,4.25,0,0,1,1.71-.34,4.45,4.45,0,0,1,1.73.34,4.85,4.85,0,0,1,1.43,1,5.17,5.17,0,0,1,1,1.43Z" transform="translate(-2 -9.17)"/><path class="cls-1" d="M117.78,94.37a17.63,17.63,0,0,1,13,5.7,18.68,18.68,0,0,1,0,26.61,17.64,17.64,0,0,1-26,0,18.68,18.68,0,0,1,0-26.61A17.64,17.64,0,0,1,117.78,94.37Zm0,25.17q6.18,0,6.18-6.2t-6.18-6.18q-6.21,0-6.2,6.18T117.78,119.54Z" transform="translate(-2 -9.17)"/><path class="cls-1" d="M164.46,190.29H71.09L24.41,109.44,71.09,28.58h93.37l46.68,80.86Zm-90.92-4.23H162l44.24-76.62L162,32.81H73.54L29.3,109.44Z" transform="translate(-2 -9.17)"/><path class="cls-1" d="M152.44,169.48H83.11l-34.66-60,34.66-60h69.33l34.66,60Zm-66.88-4.24H150l32.22-55.8L150,53.63H85.56L53.34,109.44Z" transform="translate(-2 -9.17)"/><polygon class="cls-1" points="4.89 100.26 60.33 4.24 162.18 4.24 159.74 0 57.89 0 0 100.26 57.89 200.53 62.86 200.53 60.41 196.29 60.33 196.29 4.89 100.26"/><polygon class="cls-1" points="173.66 0 168.77 0 171.22 4.24 171.22 4.24 226.66 100.26 171.22 196.29 69.84 196.29 72.28 200.53 173.66 200.53 231.55 100.26 173.66 0"/><path class="cls-1" d="M354.87,165.63v17.13h-3V165.63Z" transform="translate(-2 -9.17)"/><path class="cls-1" d="M367.32,170.68h2.87v12.08h-2.82l-.15-1.76a4.59,4.59,0,0,1-3.92,2.13c-3.58,0-6.22-2.18-6.22-6.42s2.77-6.35,6.29-6.32a4.43,4.43,0,0,1,3.85,2Zm-7.25,6a3.45,3.45,0,0,0,3.57,3.67c4.71,0,4.71-7.32,0-7.32A3.43,3.43,0,0,0,360.07,176.71Z" transform="translate(-2 -9.17)"/><path class="cls-1" d="M390.67,170.66l-5.14,12.15h-3.24l-5.17-12.15h3.26l1.67,4,1.86,5.1,1.84-5.05,1.66-4Z" transform="translate(-2 -9.17)"/><path class="cls-1" d="M394.91,177.79c.2,1.49,1.5,2.57,3.6,2.57a5,5,0,0,0,3.24-1.13l1.91,1.89a7.43,7.43,0,0,1-5.19,2c-4.17,0-6.64-2.57-6.64-6.45a6,6,0,0,1,6.42-6.32c4,0,6.56,2.5,6.1,7.48Zm6.57-2.48c-.2-1.57-1.42-2.35-3.14-2.35a3.25,3.25,0,0,0-3.38,2.35Z" transform="translate(-2 -9.17)"/><path class="cls-1" d="M415.79,182.76v-6.32c0-1.84-1-3.24-2.91-3.24a3.18,3.18,0,0,0-3.09,3.38v6.18h-3v-12.1h2.67l.2,1.64a5.45,5.45,0,0,1,4-1.82c2.84,0,5.12,2.14,5.12,5.93v6.35Z" transform="translate(-2 -9.17)"/><path class="cls-1" d="M431.08,169.45l2.21,1.67-1.35,1.72a5.13,5.13,0,0,1,1.27,3.57,4.78,4.78,0,0,1-2.54,4.51,4.07,4.07,0,0,1,2.5,4c0,3.33-2.55,5.39-6.06,5.39s-6.12-2.13-6.12-5.39h3c0,1.57,1.45,2.59,3.16,2.59s3.07-.93,3.07-2.59-1.57-2.43-3.07-2.43c-3.77,0-6.12-2.3-6.12-6.08a5.88,5.88,0,0,1,6.12-6.12,4.83,4.83,0,0,1,2.77.68Zm-7.13,7a3.16,3.16,0,1,0,6.3,0,3.16,3.16,0,1,0-6.3,0Z" transform="translate(-2 -9.17)"/><path class="cls-1" d="M445,170.68h2.87v12.08H445l-.15-1.76a4.59,4.59,0,0,1-3.92,2.13c-3.57,0-6.22-2.18-6.22-6.42s2.77-6.35,6.3-6.32a4.42,4.42,0,0,1,3.84,2Zm-7.25,6a3.46,3.46,0,0,0,3.58,3.67c4.7,0,4.7-7.32,0-7.32A3.43,3.43,0,0,0,437.7,176.71Z" transform="translate(-2 -9.17)"/><path class="cls-1" d="M459.49,182.76v-6.32c0-1.84-1-3.24-2.92-3.24a3.18,3.18,0,0,0-3.09,3.38v6.18h-3v-12.1h2.67l.19,1.64a5.47,5.47,0,0,1,4-1.82c2.85,0,5.12,2.14,5.12,5.93v6.35Z" transform="translate(-2 -9.17)"/><path class="cls-1" d="M474.65,170.68v1.42l-5.56,7.72h5.61v2.94H464.53v-1.25l5.79-8.11H465v-2.72Z" transform="translate(-2 -9.17)"/><path class="cls-1" d="M486.32,170.68h2.87v12.08h-2.82l-.15-1.76a4.61,4.61,0,0,1-3.92,2.13c-3.58,0-6.22-2.18-6.22-6.42s2.76-6.35,6.29-6.32a4.44,4.44,0,0,1,3.85,2Zm-7.25,6a3.45,3.45,0,0,0,3.57,3.67c4.71,0,4.71-7.32,0-7.32A3.43,3.43,0,0,0,479.07,176.71Z" transform="translate(-2 -9.17)"/><path class="cls-1" d="M509.7,165.63v17.13h-2.8l-.19-1.67a4.4,4.4,0,0,1-3.9,1.94,5.93,5.93,0,0,1-6.22-6.32c0-4.17,2.62-6.32,6.15-6.32,1.27,0,3.26.68,4,1.93v-6.69Zm-10.12,11.08a3.47,3.47,0,1,0,6.93,0,3.45,3.45,0,0,0-3.5-3.53A3.33,3.33,0,0,0,499.58,176.71Z" transform="translate(-2 -9.17)"/><path class="cls-1" d="M515.36,177.79c.19,1.49,1.49,2.57,3.6,2.57a5,5,0,0,0,3.23-1.13l1.92,1.89a7.45,7.45,0,0,1-5.2,2c-4.17,0-6.64-2.57-6.64-6.45a6,6,0,0,1,6.42-6.32c4,0,6.57,2.5,6.1,7.48Zm6.56-2.48c-.19-1.57-1.42-2.35-3.13-2.35a3.25,3.25,0,0,0-3.38,2.35Z" transform="translate(-2 -9.17)"/><path class="cls-1" d="M530.31,165.63v17.13h-3V165.63Z" transform="translate(-2 -9.17)"/><path class="cls-1" d="M548,170.68h2.87v12.08H548l-.15-1.76a4.59,4.59,0,0,1-3.92,2.13c-3.58,0-6.22-2.18-6.22-6.42s2.77-6.35,6.29-6.32a4.43,4.43,0,0,1,3.85,2Zm-7.25,6a3.45,3.45,0,0,0,3.57,3.67c4.71,0,4.71-7.32,0-7.32A3.43,3.43,0,0,0,540.7,176.71Z" transform="translate(-2 -9.17)"/><path class="cls-1" d="M562.48,182.76v-6.32c0-1.84-1-3.24-2.91-3.24a3.18,3.18,0,0,0-3.09,3.38v6.18h-3v-12.1h2.67l.2,1.64a5.45,5.45,0,0,1,4-1.82c2.84,0,5.12,2.14,5.12,5.93v6.35Z" transform="translate(-2 -9.17)"/><path class="cls-1" d="M577.77,172.35l.1-1.67h2.87v12.08h-2.82l-.15-1.76a4.59,4.59,0,0,1-3.92,2.13c-3.58,0-6.22-2.18-6.22-6.42s2.77-6.35,6.3-6.32A4.42,4.42,0,0,1,577.77,172.35Zm-3.57.71a3.66,3.66,0,0,0,0,7.32C578.9,180.38,578.9,173.06,574.2,173.06Zm3.4-7.7h-3.53l-1.81,3.33v.15h2.65l2.69-3.36Z" transform="translate(-2 -9.17)"/><path class="cls-1" d="M586.47,165.63v17.13h-3V165.63Z" transform="translate(-2 -9.17)"/><path class="cls-1" d="M601.35,176.73a6.29,6.29,0,1,1-6.32-6.3A6.11,6.11,0,0,1,601.35,176.73Zm-9.58,0a3.29,3.29,0,1,0,6.56,0,3.41,3.41,0,0,0-3.28-3.58A3.32,3.32,0,0,0,591.77,176.73Z" transform="translate(-2 -9.17)"/><path class="cls-1" d="M613.13,169.45l2.21,1.67L614,172.84a5.14,5.14,0,0,1,1.28,3.57,4.79,4.79,0,0,1-2.55,4.51,4.07,4.07,0,0,1,2.5,4c0,3.33-2.55,5.39-6.05,5.39s-6.13-2.13-6.13-5.39h3c0,1.57,1.45,2.59,3.17,2.59s3.06-.93,3.06-2.59-1.57-2.43-3.06-2.43c-3.78,0-6.13-2.3-6.13-6.08a5.89,5.89,0,0,1,6.13-6.12,4.81,4.81,0,0,1,2.76.68Zm-7.13,7a3.16,3.16,0,1,0,6.3,0,3.16,3.16,0,1,0-6.3,0Z" transform="translate(-2 -9.17)"/><path class="cls-1" d="M629.43,176.73a6.29,6.29,0,1,1-6.32-6.3A6.11,6.11,0,0,1,629.43,176.73Zm-9.58,0a3.3,3.3,0,1,0,6.57,0,3.42,3.42,0,0,0-3.29-3.58A3.32,3.32,0,0,0,619.85,176.73Z" transform="translate(-2 -9.17)"/></svg>