<?xml version="1.0" encoding="utf-8"?>
<!-- Generator: Adobe Illustrator 23.0.1, SVG Export Plug-In . SVG Version: 6.00 Build 0)  -->
<svg version="1.1" id="Capa_1" xmlns="http://www.w3.org/2000/svg" xmlns:xlink="http://www.w3.org/1999/xlink" x="0px" y="0px"
	 viewBox="0 0 351 319" style="enable-background:new 0 0 351 319;" xml:space="preserve">
<style type="text/css">
	.st0{fill:#FFFFFF;}
</style>
<g>
	<g>
		<path class="st0" d="M175.12,138.32c7.22,0,13.55,2.8,18.98,8.33c5.43,5.57,8.14,12.05,8.14,19.47c0,7.44-2.71,13.93-8.14,19.47
			c-5.43,5.57-11.76,8.33-18.98,8.33c-7.25,0-13.57-2.77-19-8.33c-5.43-5.54-8.14-12.03-8.14-19.47c0-7.41,2.71-13.9,8.14-19.47
			C161.54,141.11,167.87,138.32,175.12,138.32z M175.12,175.13c6.03,0,9.04-3.01,9.04-9.07c0-6.03-3.01-9.04-9.04-9.04
			c-6.05,0-9.07,3.01-9.07,9.04C166.05,172.12,169.06,175.13,175.12,175.13z"/>
	</g>
	<g>
		<path class="st0" d="M243.38,278.62H106.82L38.55,160.36l68.28-118.26h136.56l68.28,118.26L243.38,278.62z M110.4,272.42h129.4
			l64.7-112.07L239.8,48.29H110.4L45.7,160.36L110.4,272.42z"/>
	</g>
	<g>
		<path class="st0" d="M225.8,248.17H124.4l-50.7-87.81l50.7-87.81h101.4l50.7,87.81L225.8,248.17z M127.98,241.97h94.24
			l47.12-81.62l-47.12-81.62h-94.24l-47.12,81.62L127.98,241.97z"/>
	</g>
	<g>
		<polygon class="st0" points="12.93,160.36 94.01,19.91 242.98,19.91 239.4,13.71 90.44,13.71 5.77,160.36 90.44,307 97.71,307 
			94.13,300.8 94.01,300.8 		"/>
		<polygon class="st0" points="259.77,13.71 252.62,13.71 256.19,19.91 256.19,19.91 337.28,160.36 256.19,300.8 107.92,300.8 
			111.49,307 259.77,307 344.43,160.36 		"/>
	</g>
</g>
</svg>
